# xmcd
#
# Track frame offsets: 
#        150
#        19918
#        38565
#        60930
#        80921
#        99798
#        121051
#        139917
#        163637
#        185425
#
# Disc length: 2780 seconds
#
# Revision: 0
# Processed by: cddbd v1.5.2PL0 Copyright (c) Steve Scherf et al.
# Submitted via: ExactAudioCopy v1.0b6
#
DISCID=760ada0a
DTITLE=Dan Doiron - Stand Back...I Don't Know How Loud This Thing Gets
DTITLE=
DYEAR=2015
DGENRE=Modern Electric Blues
TTITLE0=You Give Me Shivers
TTITLE1=My Kind Of Trouble
TTITLE2=Killing Each Other Trying To Get Into Heaven
TTITLE3=Stand Back I Don't Know How Loud This Thing Gets
TTITLE4=Don't You Know Who I think I Am
TTITLE5=Dance Naked
TTITLE6=Painted Up
TTITLE7=Slippin' Back Into The Dip
TTITLE8=Tango Girl
TTITLE9=Once And For All
EXTD=
EXTT0=
EXTT1=
EXTT2=
EXTT3=
EXTT4=
EXTT5=
EXTT6=
EXTT7=
EXTT8=
EXTT9=
PLAYORDER=
